<svg width="75" height="88" viewBox="0 0 75 88" fill="none" xmlns="http://www.w3.org/2000/svg">
<path d="M75 50.5C75 57.9168 72.8007 65.167 68.6801 71.3339C64.5596 77.5007 58.7029 82.3072 51.8506 85.1455C44.9984 87.9838 37.4584 88.7264 30.1841 87.2794C22.9098 85.8325 16.228 82.261 10.9835 77.0165C5.73903 71.772 2.1675 65.0902 0.720552 57.8159C-0.726394 50.5416 0.0162313 43.0016 2.85452 36.1494C5.6928 29.2971 10.4993 23.4404 16.6661 19.3199C22.833 15.1993 30.0832 13 37.5 13L37.5 31.1868C33.6802 31.1868 29.9462 32.3195 26.7702 34.4417C23.5941 36.5638 21.1187 39.5801 19.6569 43.1092C18.1952 46.6382 17.8127 50.5214 18.5579 54.2678C19.3031 58.0142 21.1425 61.4555 23.8435 64.1565C26.5445 66.8575 29.9858 68.6969 33.7322 69.4421C37.4786 70.1873 41.3618 69.8048 44.8908 68.3431C48.4199 66.8813 51.4362 64.4059 53.5583 61.2298C55.6805 58.0538 56.8132 54.3198 56.8132 50.5H75Z" fill="#C4E0B7"/>
<path d="M75 50.5C75 55.4246 74.03 60.3009 72.1455 64.8506C70.2609 69.4003 67.4987 73.5343 64.0165 77.0165C60.5343 80.4987 56.4003 83.2609 51.8506 85.1455C47.3009 87.03 42.4246 88 37.5 88L37.5 69.8132C40.0362 69.8132 42.5477 69.3136 44.8908 68.3431C47.234 67.3725 49.3631 65.9499 51.1565 64.1565C52.9499 62.3631 54.3725 60.234 55.3431 57.8908C56.3136 55.5477 56.8132 53.0362 56.8132 50.5L75 50.5Z" fill="#6C7C65"/>
<path d="M37.5 88C32.5754 88 27.6991 87.03 23.1494 85.1455C18.5997 83.2609 14.4657 80.4987 10.9835 77.0165C7.5013 73.5343 4.73907 69.4003 2.85452 64.8506C0.969965 60.3009 -4.3052e-07 55.4246 0 50.5L18.1868 50.5C18.1868 53.0362 18.6864 55.5477 19.6569 57.8908C20.6275 60.234 22.0501 62.3631 23.8435 64.1565C25.6369 65.9499 27.766 67.3725 30.1092 68.3431C32.4523 69.3136 34.9638 69.8132 37.5 69.8132L37.5 88Z" fill="#8CA381"/>
<path d="M56.1826 25C61.6046 25 66.1719 29.5578 64.097 34.5671V34.5671C62.8406 37.6002 60.9991 40.3562 58.6777 42.6777C56.3562 44.9991 53.6002 46.8406 50.5671 48.097V48.097C45.5578 50.1719 41 45.6046 41 40.1826L41 37.5C41 30.5964 46.5964 25 53.5 25H56.1826Z" fill="#96B372"/>
</svg>
